<svg width="240" height="263" fill="none" xmlns="http://www.w3.org/2000/svg"><path d="M-7.39 46.516C-3 37.284 1.704 27.667 9.715 20.956c6.62-5.525 15.184-7.738 23.631-5.89 7.018 1.529 13.618 5.618 17.35 11.775 4.225 6.958 4.646 15.85 2.87 23.658-2.145 9.58-7.46 18.14-14.998 24.489l7.854 7.8C61.658 63.127 80.456 46.4 101.889 33.674c21.433-12.727 44.05-21.556 67.733-24.07 10.816-1.134 22.262-.459 32.277 3.95 8.757 3.872 15.812 10.753 20.511 18.995 10.682 18.707 9.298 41.21-.575 60.097-5.659 10.785-13.987 20.233-23.657 27.666-4.29 3.299-8.84 6.25-14.011 7.972-4.158 1.373-9.583 2.449-13.228-.527l2.418 7.268c10.767-4.043 20.807 1.026 29.051 7.809 4.331 3.549 8.18 7.7 11.883 11.905 4.526 5.17 8.918 10.622 12.076 16.758 14.005 27.185-14.072 55.202-35.877 68.261-14.145 8.46-30.553 13.41-46.982 14.32-5 .273 1.256 8.644 4.658 8.53 32.169-1.011 64.188-17.94 82.06-44.999 4.123-6.257 7.566-13.179 8.557-20.653 1.051-8.036-.693-15.781-4.096-23.009-3.402-7.228-8.66-14.178-14.06-20.399-4.64-5.368-9.465-10.541-14.845-15.188-10.433-8.984-24.843-17.258-38.992-11.937-3.44 1.281 1.108 6.232 2.417 7.268 18.556 15.043 43.526-8.654 54.17-23.023 14.121-19.078 19.621-43.486 11.716-66.059-7.904-22.573-27.388-40.251-51.675-43.557-12.04-1.653-24.448-.04-36.222 2.822-13.077 3.174-25.826 7.891-37.935 13.767C81.703 31.054 57.24 50.7 38.652 75.028c-2.362 3.097 4.843 10.39 7.853 7.801C61.77 69.788 68.258 47.04 58.846 28.891 50.052 12.118 26.838-.47 8.51 9.113c-12.253 6.399-18.6 19.226-24.23 31.14-1.475 3.143 6.501 10.08 8.33 6.263Z" fill="#EDE9E0"/></svg>