<svg width="253" height="211" fill="none" xmlns="http://www.w3.org/2000/svg"><path d="M271.272 42.175c-11.023-12.34-26.482-30.116-45.157-23.68-7.339 2.53-12.336 8.466-13.148 16.182-.468 4.436.844 13.684 6.09 15.246l-7.089 2.343c-6.714-19.307-22.704-35.208-42.097-41.77-9.213-3.123-19.362-4.06-28.95-2.155-11.742 2.312-19.612 10.185-20.767 22.275-1.343 14.183 7.308 26.773 14.927 37.864l-12.366-.656c-3.279-11.372-16.895-15.59-27.076-18.37-12.742-3.499-26.451-4.342-39.193-.312-20.799 6.56-38.88 28.023-32.79 50.672 2.654 9.904 10.18 20.9 21.142 22.181l-5.622 2.781c-.562-5.061-4.028-7.404-8.9-6.374-5.497 1.156-10.243 5.811-12.867 10.591-5.933 10.778-4.809 25.368 1.156 35.864 7.401 13.09 22.017 19.807 35.914 23.587 17.957 4.874 36.819 7.029 55.213 9.341 22.86 2.874 45.813 4.78 68.829 6.155 2.186.125 6.028 1.499 6.84 3.78.812 2.28-1.593 3.28-3.592 3.186-24.515-.937-48.999-3.093-73.357-6.217-21.111-2.718-43.034-5.123-63.302-11.965-16.77-5.654-33.853-15.402-41.16-32.334-5.622-13.027-5.31-30.522 4.809-41.331 5.965-6.374 14.521-9.154 23.11-8.061 8.588 1.094 19.174 5.811 20.236 15.402.313 2.874-3.685 2.999-5.621 2.78-28.356-3.374-45.97-34.677-32.229-60.2C29.808 40.113 65.41 35.083 94.577 42.3c14.896 3.686 36.101 10.466 40.848 27.117.718 2.5-3.248 2.874-4.716 2.78-2.654-.156-6.058-1.124-7.651-3.436-7.776-11.403-15.989-23.774-15.927-38.114.063-14.34 8.057-24.024 21.111-28.023 24.609-7.529 53.34 1.625 72.608 17.589 10.712 8.872 18.925 20.462 23.485 33.615 1.187 3.405-5.871 2.718-7.089 2.343-9.713-2.905-16.614-10.497-17.02-20.869-.406-10.372 5.965-19.244 15.896-22.868 11.523-4.186 24.827-2.374 35.663 2.999 12.586 6.186 21.923 16.308 31.011 26.492 2.03 2.25-1.718 3.562-3.341 3.624-3.03.125-6.153-1.125-8.151-3.374h-.032Z" fill="#EDE9E0"/></svg>