<svg width="397" height="290" fill="none" xmlns="http://www.w3.org/2000/svg"><path d="M24.595 281.219c-11.826-34.61-4.406-78.323 23.652-103.334 11.556-10.319 28.464-16.899 40.92-4.281 8.408 8.427 14.119 25.552 3.596 34.61l17.178-.991c-12.456-40.468 1.933-85.083 31.161-114.645 14.344-14.51 31.566-25.822 50.272-33.979 9.398-4.1 19.335-7.931 29.408-10.004 9.218-1.893 17.357 1.081 22.078 9.508 12.051 21.451-5.486 42.857-19.425 57.909l17.177-.992c-12.681-22.217-.225-46.732 17.491-61.648 19.066-16.043 43.348-27.22 67.09-34.295 20.279-6.038 41.863-10.094 62.997-6.624 17.852 2.93 36.557 11.356 44.426 28.796 12.006 26.588-4.766 54.664-20.054 75.889-2.608 3.605 2.203 5.318 5.036 5.453 4.272.18 9.533-1.577 12.231-5.047 16.052-21 32.735-49.662 23.607-76.97-7.06-21.091-27.07-32.673-47.664-37.314-24.642-5.543-50.227-2.254-74.419 3.92-28.733 7.346-56.927 19.784-80.939 37.314-22.708 16.539-45.101 47.002-28.778 75.664 3.013 5.227 13.67 2.749 17.177-.992 14.929-16.088 32.645-36.322 25.676-60.071-2.923-9.96-10.073-17.846-20.145-20.64-12.681-3.515-26.305.316-38.446 4.191-46 14.827-89.123 43.983-109.087 89.499-11.017 25.101-13.85 53.852-5.711 80.215 1.933 6.219 14.119 1.622 17.177-.991 10.387-8.923 11.916-23.119 5.89-35.106-6.969-13.88-20.324-21-35.703-20.594-38.446 1.036-66.73 35.691-75.273 70.706-4.811 19.738-4.002 40.739 2.563 59.936 2.249 6.67 21.224 1.217 19.021-5.092h-.18Z" fill="#EDE9E0"/></svg>