<svg width="392" height="26" fill="none" xmlns="http://www.w3.org/2000/svg"><path d="M84.924 14.14A7611.814 7611.814 0 0 1 196.27 8.841a7297.56 7297.56 0 0 1 110.899-3.614c21.001-.522 42.025-.973 63.032-1.332l2.721-3.813c-47.903 2.39-95.781 4.962-143.652 7.715a18123.341 18123.341 0 0 0-143.594 8.82 19996.99 19996.99 0 0 0-80.572 5.418c-1.574.108-3.926.552-4.768 1.96-.784 1.315.775 1.933 2.046 1.853a3594.434 3594.434 0 0 1 149.84-5.46 3557.46 3557.46 0 0 1 149.914.85c28.065.74 56.121 1.826 84.148 3.239 1.519.075 4.002-.682 4.767-1.96.842-1.39-.831-1.804-2.046-1.853a3580.032 3580.032 0 0 0-149.794-4.41 3531.32 3531.32 0 0 0-149.92 1.925 3625.802 3625.802 0 0 0-84.167 3.855l-2.721 3.813a19002.3 19002.3 0 0 1 143.552-9.435c47.864-2.952 95.734-5.74 143.611-8.33 26.876-1.45 53.774-2.865 80.655-4.206 1.575-.072 3.945-.571 4.767-1.96.822-1.389-.793-1.878-2.046-1.853-37.181.662-74.313 1.557-111.455 2.744a7533.621 7533.621 0 0 0-110.874 4.338 7310.005 7310.005 0 0 0-62.968 3.199c-1.574.09-3.945.57-4.767 1.96-.784 1.315.774 1.933 2.046 1.853v-.019Z" fill="#EDE9E0"/></svg>