<svg width="175" height="220" fill="none" xmlns="http://www.w3.org/2000/svg"><path d="M25.252 197.38c3.566 1.58 7.664 3.372 9.426 7.103.779 1.651 1.115 3.566.537 5.329-.607 1.856-2.352 3.225-3.885 4.342-5.943 4.312-14.037 5.487-20.959 2.984-3.59-1.298-7.21-3.842-6.962-8.084.247-4.242 3.266-7.861 5.624-11.134 4.663-6.474 9.857-12.919 12.221-20.663 1.144-3.743 1.946-8.29-.247-11.809-2.193-3.52-6.668-4.789-10.618-4.988-1.161-.059-2.323-.03-3.484.023-.513.024-1.285.153-1.574.646-.266.465.23.711.648.7 4.275-.13 9.12.176 12.074 3.707 2.836 3.396 1.857 8.401.649 12.256-2.541 8.096-8.219 14.717-13.03 21.55-2.346 3.331-5.246 7.309-4.686 11.621.53 4.095 4.48 6.404 8.065 7.585 7.546 2.485 16.242 1.269 22.892-3.055 1.692-1.099 3.425-2.403 4.657-4.019 1.233-1.615 1.533-3.466 1.197-5.352-.737-4.136-4.25-6.768-7.8-8.531a71.884 71.884 0 0 0-2.888-1.328c-.502-.223-1.203-.07-1.651.218-.295.188-.72.675-.206.905v-.006Zm-9.339-45.827c.371-1.034.766-2.356.212-3.396-.648-1.228-2.146-1.498-3.42-1.263-1.444.264-2.853 1.063-3.513 2.42-.495 1.023-.501 2.286.4 3.097 1.215 1.092 3.238.987 4.446-.053.13-.112.283-.312.23-.5-.053-.188-.283-.288-.448-.317-.584-.106-1.18.094-1.645.441l.118-.088c-.03.017-.065.041-.094.058-.012 0 .289-.123.118-.064-.095.035-.29.082.106-.036-.1.03-.165 0 .165-.029-.041 0-.089.012-.13.018-.136.029.319 0 .118-.006-.035 0-.212-.024-.03 0 .201.029-.047-.012-.082-.018-.035-.006-.07-.017-.106-.023-.189-.041.189.082.012 0-.077-.036-.154-.065-.23-.1-.042-.024-.083-.041-.124-.065-.006 0-.165-.1-.065-.035s-.047-.041-.059-.047c-.041-.035-.088-.071-.13-.112a2.036 2.036 0 0 1-.353-.429c.07.124-.047-.117-.06-.152a1.942 1.942 0 0 1-.094-.365c-.04-.241-.035-.293-.017-.481.03-.247.1-.47.183-.7.064-.193-.042.071.011-.041l.077-.147c.053-.099.118-.193.183-.282.035-.047.253-.323.106-.146.076-.094.177-.177.265-.259.041-.035.089-.071.13-.106.153-.123-.053.041-.053.035-.006-.017.247-.146.277-.17-.224.176-.153.076-.041.024.04-.018.076-.03.117-.047.23-.094-.306.082-.064.023.059-.012.13-.029.188-.047-.283.1-.236.041-.135.029.065-.005.123-.017.188-.023.183-.024-.094.012-.112 0 .053.012.136 0 .189 0 .041 0 .083.006.124.006-.29 0-.1-.006-.024.006.042.006.077.017.118.029.189.041-.147-.07.012 0 .094.041.183.076.271.129.03.018.177.135.041.024.03.023.065.047.095.076.076.071.153.147.218.229.035.042.065.089.1.136.024.041.024.035 0-.006.018.035.041.076.059.117a2.297 2.297 0 0 1 .195.881c.005.13.005-.041 0 .1a4.68 4.68 0 0 1-.036.412c-.07.528-.23 1.045-.407 1.551-.064.182.1.346.242.423.218.111.548.117.778.082.49-.071 1.162-.282 1.345-.799l.035.006ZM137.066 23.345c-4.968-1.296-10.643-2.852-13.333-7.67-1.154-2.067-1.587-4.508-.75-6.763.721-1.966 2.365-3.392 4.168-4.364 1.904-1.03 4.038-1.585 6.151-1.966a48.783 48.783 0 0 1 8.437-.785c5.647-.022 11.308.9 16.629 2.78 4.399 1.555 9.195 3.78 11.719 7.915a9.022 9.022 0 0 1 1.089 6.741c-.57 2.449-2.027 4.573-3.62 6.475-1.825 2.182-3.909 4.162-5.899 6.193l-6.541 6.677c-3.569 3.644-7.254 7.418-9.324 12.164-1.954 4.494-1.716 9.557 1.147 13.612 2.956 4.184 8.235 6.129 13.247 5.401a15.805 15.805 0 0 0 3.807-1.058c.404-.166 1.168-.648.772-1.16-.397-.511-1.471-.201-1.918-.029-4.839 1.873-10.291-.31-13.154-4.458-2.863-4.148-2.56-9.766-.086-14.224 2.697-4.861 6.937-8.714 10.788-12.64l6.663-6.805c1.889-1.93 3.793-3.904 5.243-6.194 1.348-2.125 2.249-4.494 2.163-7.037-.079-2.326-1.103-4.494-2.589-6.258-3.238-3.846-8.228-5.891-12.901-7.375A51.98 51.98 0 0 0 141.638.09c-5.264.151-10.939.806-15.698 3.205-4.161 2.088-7.464 6.006-6.166 10.91 1.413 5.36 6.562 8.118 11.466 9.666 1.312.418 2.646.764 3.98 1.11.671.172 1.645-.094 2.135-.57.469-.454.339-.9-.289-1.066Zm16.92 57.573c-.678 1.72.361 3.485 1.803 4.422 1.86 1.21 4.392.785 6.202-.303a6.968 6.968 0 0 0 2.127-2.002 7.41 7.41 0 0 0 .678-1.239c.187-.432.512-1.066.259-1.505-.425-.735-1.456-1.31-2.221-1.613a8.357 8.357 0 0 0-3.057-.584c-2.813-.014-5.495 1.146-7.925 2.456-.375.202-.808.72-.347 1.059.462.339 1.327.18 1.818-.036 1.665-.735 3.396-1.685 5.069-1.764 1.363-.065 2.906.475 3.865 1.663l-.108-.403c-.231.929-.663 1.836-1.355 2.52-.13.13-.354.325-.448.397l-.238.15-.129.08c.101-.05.093-.043 0 0-.101.043-.318.13-.094.05-.036.015-.418.101-.231.065.173-.036-.252.022-.245.022.216-.007-.123-.029-.029-.007a3.465 3.465 0 0 1-1.997-1.325c-.52-.706-.678-1.635-.339-2.478.259-.648-.988-.691-1.32-.655-.649.079-1.478.381-1.738 1.037v-.007ZM61.358 67.801l-2.365 12.55c-.112.606-.008.978.528 1.365.601.431 1.586.602 2.29.605.938.003 1.945-.09 2.817-.471.525-.24 1.455-.647 1.567-1.253l2.33-12.556c.094-.609.004-.961-.532-1.347-.6-.432-1.568-.6-2.271-.603-.939-.003-1.928.093-2.8.474-.522.222-1.434.633-1.55 1.256l-.014-.02Zm18.994 3.717A99.328 99.328 0 0 0 78.467 84c-.048.544.805.98 1.18 1.127.765.297 1.769.346 2.56.255 1.252-.162 3.22-.622 3.344-2.117a92.31 92.31 0 0 1 .795-6.63l-.076.488c.281-1.81.63-3.59 1.017-5.383.315-1.448-1.585-1.886-2.72-1.901-.9-.016-1.873.083-2.71.47-.504.224-1.375.605-1.508 1.226l.003-.017Zm-55.424 49.134c28.66-8.643 61.147-11.472 87.708 5.019 6.883 4.276 12.463 9.615 17.713 15.687 1.453 1.686 8.388.626 6.813-1.668-8.38-12.188-22.835-20.491-36.743-24.985-15.852-5.117-32.832-5.76-49.241-3.569-9.68 1.293-19.196 3.503-28.515 6.314-.985.292-2.998 1.049-2.235 2.414.69 1.248 3.442 1.087 4.502.771l-.002.017Z" fill="#343134"/></svg>