<svg width="64" height="51" fill="none" xmlns="http://www.w3.org/2000/svg"><path d="M8.702 20.096a242.524 242.524 0 0 1 5.86-8.545c.97-1.36 1.961-2.697 2.953-4.035 1.101-1.45 2.49-2.9 3.15-4.623.55-1.45-1.784-1.972-2.622-1.972-1.828 0-3.679.59-5.133 1.79-1.454 1.202-2.555 2.97-3.701 4.488a285.98 285.98 0 0 0-3.062 4.17C4.142 14.18 2.18 17.014.308 19.915c-1.167 1.768 1.014 2.72 2.446 2.72 2.005 0 4.737-.702 5.948-2.538Zm22.229 13.078c7.491-7.457 15.29-14.62 23.287-21.532.463-.408.992-1.156.815-1.836-.176-.68-1.013-1.043-1.608-1.179-1.983-.453-4.318.34-5.86 1.61-8.152 6.799-15.995 13.984-23.551 21.486-.463.453-1.058 1.179-.86 1.927.199.748 1.058 1.11 1.675 1.224 1.96.362 4.626-.227 6.102-1.678v-.022Zm5.993 17.429c3.79-1.065 7.6-2.017 11.434-2.833l1.322-.272c1.013-.204-.33.068.617-.136 1.035-.204 2.07-.408 3.106-.589a257.5 257.5 0 0 1 5.816-1.02c1.542-.272 4.362-1.02 4.737-2.924.374-1.904-2.534-1.972-3.613-1.836-8.306 1.088-16.545 2.924-24.609 5.19-1.256.34-4.208 1.565-3.723 3.4.485 1.836 3.701 1.36 4.89 1.02h.023Z" fill="#EDE9E0"/></svg>