<svg width="71" height="62" fill="none" xmlns="http://www.w3.org/2000/svg"><path d="m66.834 7.48-21.9.386c-1.2 0-2.367.033-3.567.065H39.3c-2.5 0 1.5.096 1.767-1.064-.567 2.385-4.9 1.966-6.567 1.644-2.666-.516-5.4-1.644-6.567-4.157-.9-1.901 1.5-3.19 3.034-3.545 1.533-.354 3-.322 4.533-.354 2.867-.065 5.733-.097 8.6-.13L61.6.069c3-.032 7.167.967 8.9 3.577 1.734 2.61-1.5 3.802-3.666 3.835Zm-6.867 27.616L34.3 35.45c-4.2.064-8.4.129-12.6.161-3.1.032-7.133-.58-9.767.806-2.433 1.289-6.3.322-8.566-.838C2.033 34.902-1.4 32.614.6 30.842c3.167-2.803 7.6-2.739 11.667-2.803l14.1-.194 28.233-.354c3.067-.032 7.367.999 9.133 3.673 1.767 2.675-1.533 3.9-3.766 3.932Zm.766 25.167c-9.766 0-19.5.354-29.266.805-2.767.129-6.767-.967-8.4-3.351-1.7-2.514 1.466-3.448 3.433-3.61 9.667-.805 19.4-1.063 29.1-1.03 2.933 0 6.933.902 8.633 3.448 1.7 2.545-1.433 3.738-3.533 3.705l.033.033Z" fill="#EDE9E0"/></svg>