<svg width="177" height="158" fill="none" xmlns="http://www.w3.org/2000/svg"><path d="M7.595 120.523c14.217-24.14 24.83-52.775 17.677-80.947-.82-3.264-8.122 2.425-7.331 5.542 6.715 26.515-3.233 53.183-16.583 75.896-.826 1.404-.937 3.433 1.088 3.491 2.025.058 4.23-2.36 5.181-3.973l-.032-.009Z" fill="#EDE9E0"/><path d="M18.26 46.19c16.216 21 38.788 38.36 65.55 42.47 2.074.33 4.12-1.37 5.286-2.942.568-.765 2.37-4.07.277-4.389-26.443-4.076-48.413-21.1-64.424-41.84-1.872-2.438-8.792 3.958-6.67 6.689l-.02.011ZM1.382 125.119c23.622 5.759 46.93 14.755 65.069 31.428 2.454 2.266 9.076-4.504 6.67-6.688-18.439-16.909-42.2-26.216-66.21-32.079-3.103-.745-8.838 6.522-5.561 7.331l.02-.012.012.02Z" fill="#EDE9E0"/><path d="M76.792 149.839c-.2-22.555 4.175-44.887 13.212-65.573.8-1.827-.71-2.837-2.376-2.366-2.195.64-3.859 2.719-4.723 4.718-9.23 21.153-13.785 44.216-13.585 67.29.045 4.284 7.483-1.074 7.46-4.089l.012.02Zm69.393-124.085A186.66 186.66 0 0 0 161.54 1.53c.346-.642-.488-.818-.913-.78-.67.057-1.471.477-1.804 1.101a183.438 183.438 0 0 1-15.041 23.739c-.38.51-.185.955.435 1.033.658.08 1.576-.332 1.975-.87l-.007.001Z" fill="#EDE9E0"/><path d="M159.831 2.33c3.216 8.282 8.193 15.645 13.748 22.428.628.773 3.322-.61 2.536-1.576-5.463-6.676-10.326-13.944-13.491-22.089-.392-1.008-3.198.19-2.793 1.237Zm-16.307 24.345c4 6.84 7.211 14.13 9.553 21.747.306.996 3.137-.134 2.793-1.236a103.172 103.172 0 0 0-9.554-21.747c-.582-.988-3.314.344-2.792 1.236Z" fill="#EDE9E0"/><path d="M156.075 47.436a90.735 90.735 0 0 1 19.729-22.304c.407-.331.694-.949.085-1.221-.609-.272-1.557.201-2.025.581-8.032 6.525-14.955 14.386-20.514 23.266-.394.626.526.813.922.78a2.439 2.439 0 0 0 1.803-1.102Z" fill="#EDE9E0"/></svg>