<svg width="129" height="18" fill="none" xmlns="http://www.w3.org/2000/svg"><path d="m32.558 3.152 36.807-.03 36.64-.031c6.937 0 13.874-.02 20.817-.01l.955-2.136c-16.397.804-32.795 1.78-49.185 2.918A2413.635 2413.635 0 0 0 29.46 7.798a2507.14 2507.14 0 0 0-27.547 2.644c-.434.04-1.195.447-1.355 1.139-.16.69.32.955.708.965l48.931 1.76c16.31.59 32.621 1.179 48.931 1.758 9.207.336 18.421.661 27.627.987l.962-2.136-17.352.916c-.528.03-1.322.244-1.609 1.016-.274.722.233 1.119.661 1.098l17.338-.884c.535-.03 1.336-.244 1.636-1.027.301-.783-.247-1.098-.674-1.108-16.311-.6-32.621-1.18-48.932-1.76-16.31-.579-32.62-1.169-48.93-1.748L2.226 10.42l-.647 2.105a2388.894 2388.894 0 0 1 48.817-4.484A2380.11 2380.11 0 0 1 126.81 3.08c.534-.03 1.335-.244 1.636-1.026.3-.783-.241-1.109-.668-1.109-12.271.03-24.543.03-36.807.041l-36.64.03-20.817.02c-.521 0-1.329.265-1.616 1.018-.287.752.24 1.098.661 1.098Z" fill="#343134"/></svg>