<svg width="119" height="14" fill="none" xmlns="http://www.w3.org/2000/svg"><path d="M71.178.96c-12.705.725-25.424 1.464-38.13 2.19-.833.041-2.416.585-2.708 1.492-.291.906.598 1.283 1.417 1.269 27.938-.614 55.96-1.214 83.786 1.771l1.305-2.803c-29.201 4.296-58.708 6.402-88.23 6.22a581.953 581.953 0 0 1-25.16-.71l-1.32 2.817a549.61 549.61 0 0 1 79.33-1.158c1.055.056 2.735-.39 3.304-1.367.57-.976-.513-1.422-1.36-1.478a552.97 552.97 0 0 0-80.58 1.213c-.86.07-2.457.586-2.763 1.52-.305.935.625 1.256 1.445 1.298a588.752 588.752 0 0 0 89.674-2.441 579.105 579.105 0 0 0 24.98-3.152c.861-.126 2.43-.544 2.749-1.52.32-.977-.638-1.2-1.43-1.284C89.632 1.866 61.611 2.48 33.673 3.12l-1.291 2.762c12.705-.74 25.424-1.478 38.13-2.204.833-.042 2.638-.655 2.777-1.66C73.428.902 71.886.93 71.179.972V.96Z" fill="#343134"/></svg>