<svg width="119" height="14" fill="none" xmlns="http://www.w3.org/2000/svg"><path d="M71.178.96c-12.705.725-25.425 1.464-38.13 2.19-.833.041-2.416.585-2.708 1.492-.291.906.597 1.283 1.416 1.269 27.939-.614 55.96-1.214 83.787 1.771l1.305-2.803c-29.201 4.296-58.709 6.402-88.23 6.22a581.952 581.952 0 0 1-25.16-.71l-1.32 2.817a549.611 549.611 0 0 1 79.33-1.158c1.055.056 2.735-.39 3.304-1.367.57-.976-.514-1.422-1.36-1.478a552.971 552.971 0 0 0-80.58 1.213c-.86.07-2.457.586-2.763 1.52-.305.935.625 1.256 1.444 1.298a588.753 588.753 0 0 0 89.674-2.441 579.134 579.134 0 0 0 24.981-3.152c.861-.126 2.43-.544 2.749-1.52.32-.977-.639-1.2-1.43-1.284C89.632 1.866 61.611 2.48 33.673 3.12L32.38 5.883c12.706-.74 25.425-1.478 38.13-2.204.834-.042 2.639-.655 2.778-1.66.139-1.116-1.402-1.088-2.11-1.046V.96Z" fill="#343134"/></svg>